<svg xmlns="http://www.w3.org/2000/svg" xmlns:xlink="http://www.w3.org/1999/xlink" width="1832" height="4992" version="1.1" viewBox="0 0 1832 4992"><defs><rect id="path-1" width="1832" height="4992" x="0" y="0"/><linearGradient id="linearGradient-3" x1="43.397%" x2="43.397%" y1="38.826%" y2="100%"><stop offset="0%" stop-color="#EDF5FF"/><stop offset="100%" stop-color="#F6F8FF" stop-opacity=".5"/></linearGradient><linearGradient id="linearGradient-4" x1="20.775%" x2="71.145%" y1="32.808%" y2="32.808%"><stop offset="0%" stop-color="#F8FCFF" stop-opacity=".5"/><stop offset="100%" stop-color="#EFF7FF"/></linearGradient><linearGradient id="linearGradient-5" x1="76.292%" x2="50%" y1="70.64%" y2="11.586%"><stop offset="0%" stop-color="#EDF5FF"/><stop offset="100%" stop-color="#F6F8FF" stop-opacity=".5"/></linearGradient></defs><g id="Responsive-&amp;-Guides" fill="none" fill-rule="evenodd" stroke="none" stroke-width="1"><g id="Group-8"><mask id="mask-2" fill="#fff"><use xlink:href="#path-1"/></mask><use id="Mask" fill="#FFF" xlink:href="#path-1"/><g id="Page-1" mask="url(#mask-2)"><g><path fill="url(#linearGradient-3)" d="M645,1158 C645,1158 1323.79541,1225.35111 1318.18577,1859.5651 C1312.57614,2493.77908 2322.35109,2538.68106 1940.88113,2931.55573 C1559.40746,3324.43412 779.638639,3049.41739 779.638639,3049.41739 L645,1158 Z" transform="translate(-815.000000, -88.000000)"/><path fill="url(#linearGradient-4)" d="M504.432959,3506.741 C504.432959,3506.741 481.178399,3681.16699 972.230756,4183.00678 C1463.28311,4684.84656 1900.18937,4458.46167 2067.71009,4909.08551 C2235.23081,5359.7136 2170.64169,5771.07877 2530.90442,5732.48377 C2891.16715,5693.88877 2678.86673,3365.2175 2678.86673,3365.2175 L1701.01441,3243 L498,3352.35675 L504.432959,3506.741 Z" transform="translate(-815.000000, -88.000000) translate(1619.500000, 4489.000000) rotate(117.000000) translate(-1619.500000, -4489.000000)"/><path fill="url(#linearGradient-5)" d="M549.432959,263.740999 C549.432959,263.740999 526.178399,438.166989 1017.23076,940.006776 C1508.28311,1441.84656 1945.18937,1215.46167 2112.71009,1666.08551 C2280.23081,2116.7136 2215.64169,2528.07877 2575.90442,2489.48377 C2936.16715,2450.88877 2723.86673,122.217496 2723.86673,122.217496 L1746.01441,0 L543,109.35675 L549.432959,263.740999 Z" transform="translate(-815.000000, -88.000000)"/></g></g></g></g></svg>